<svg xmlns="http://www.w3.org/2000/svg" width="375" viewBox="0 0 375 375" height="375" version="1.0"><defs><clipPath id="a"><path d="M 101.363281 101.363281 L 273.863281 101.363281 L 273.863281 273.863281 L 101.363281 273.863281 Z M 101.363281 101.363281"/></clipPath></defs><path fill="#176B7D" d="M 187.351562 374.699219 C 137.332031 374.699219 90.230469 355.230469 54.886719 319.8125 C 19.46875 284.46875 0 237.371094 0 187.351562 C 0 137.332031 19.46875 90.230469 54.886719 54.886719 C 90.230469 19.46875 137.332031 0 187.351562 0 C 237.371094 0 284.46875 19.46875 319.8125 54.886719 C 355.230469 90.304688 374.699219 137.332031 374.699219 187.351562 C 374.699219 237.371094 355.230469 284.46875 319.8125 319.8125 C 284.46875 355.230469 237.371094 374.699219 187.351562 374.699219 Z M 187.351562 11.230469 C 140.324219 11.230469 96.070312 29.578125 62.824219 62.824219 C 29.578125 96.070312 11.230469 140.324219 11.230469 187.351562 C 11.230469 234.375 29.578125 278.628906 62.824219 311.875 C 96.070312 345.121094 140.324219 363.46875 187.351562 363.46875 C 234.375 363.46875 278.628906 345.121094 311.875 311.875 C 345.121094 278.628906 363.46875 234.375 363.46875 187.351562 C 363.46875 140.324219 345.121094 96.070312 311.875 62.824219 C 278.628906 29.578125 234.375 11.230469 187.351562 11.230469 Z M 187.351562 11.230469"/><path fill="#29A89C" d="M 245.117188 233.789062 C 244.53125 235.257812 243.121094 236.15625 241.632812 236.15625 C 241.171875 236.15625 240.703125 236.070312 240.246094 235.890625 C 240.019531 235.796875 239.789062 235.707031 239.5625 235.613281 C 237.648438 234.820312 236.742188 232.628906 237.53125 230.714844 C 237.554688 230.652344 237.597656 230.597656 237.625 230.539062 C 235.761719 229.550781 233.925781 228.394531 232.164062 227.089844 C 232.128906 227.136719 232.101562 227.191406 232.0625 227.238281 C 230.6875 228.785156 228.316406 228.925781 226.769531 227.554688 C 219.402344 221.015625 215.058594 213.023438 214.027344 204.398438 C 204.160156 214.1875 193.070312 222.621094 181.527344 229.070312 C 167.417969 236.957031 153.566406 241.382812 141.476562 241.871094 C 140.746094 241.902344 140.027344 241.914062 139.3125 241.914062 C 135.890625 241.914062 132.660156 241.570312 129.644531 240.902344 C 135.320312 247.066406 141.964844 252.328125 149.324219 256.425781 C 150.980469 257.351562 152.667969 258.207031 154.382812 259.011719 C 157.066406 258.601562 159.753906 258.027344 162.417969 257.324219 C 161.871094 255.390625 162.941406 253.359375 164.875 252.742188 L 165.28125 252.613281 C 167.242188 251.984375 169.335938 253.058594 169.980469 255.003906 C 172.15625 254.242188 174.296875 253.421875 176.382812 252.554688 C 175.574219 250.675781 176.417969 248.488281 178.289062 247.648438 C 193.761719 240.722656 205.648438 231.964844 205.769531 231.871094 C 206.660156 231.210938 207.800781 230.980469 208.882812 231.242188 C 209.960938 231.5 210.867188 232.230469 211.359375 233.226562 C 214.683594 239.957031 227.246094 248.363281 235.015625 250.460938 C 241.019531 245.949219 246.300781 240.65625 250.742188 234.675781 C 248.96875 234.523438 247.09375 234.167969 245.167969 233.609375 C 245.148438 233.671875 245.136719 233.730469 245.117188 233.789062"/><path fill="#FFF" d="M 242.796875 212.1875 C 242.773438 212.167969 242.753906 212.144531 242.730469 212.125 C 242.71875 212.113281 242.703125 212.101562 242.691406 212.089844 C 236.09375 206.183594 233.242188 196.785156 235.09375 186.929688 C 236.214844 180.886719 239.828125 175.640625 245.265625 172.164062 C 250.300781 168.960938 256.734375 167.519531 262.429688 168.671875 C 258.1875 162.441406 250.109375 157.949219 239.082031 159.070312 C 232.425781 159.773438 225.503906 162.449219 218.527344 167.027344 C 216.414062 168.410156 214.273438 169.984375 212.167969 171.703125 C 208.234375 174.953125 204.222656 178.292969 200.246094 181.613281 C 200.242188 181.621094 200.234375 181.625 200.234375 181.628906 C 200.222656 181.636719 200.214844 181.636719 200.210938 181.644531 C 187.886719 191.902344 177.664062 200.246094 167.554688 206.578125 C 161.140625 210.59375 155.277344 213.441406 149.636719 215.28125 C 149.628906 215.285156 149.613281 215.292969 149.605469 215.296875 C 144.664062 216.855469 139.984375 217.632812 135.457031 217.632812 C 133.105469 217.632812 130.796875 217.417969 128.511719 217 C 128.5 217 128.488281 216.996094 128.472656 216.996094 C 128.441406 216.992188 128.40625 216.988281 128.371094 216.980469 C 122.8125 215.960938 117.449219 213.734375 112.160156 210.242188 C 114.019531 216.460938 116.628906 222.390625 119.976562 227.96875 C 125.007812 232.585938 132.128906 234.746094 141.171875 234.378906 C 163.882812 233.460938 193.648438 216.515625 215.246094 192.210938 C 216.355469 190.957031 218.171875 190.597656 219.683594 191.332031 C 221.191406 192.0625 222.03125 193.710938 221.734375 195.359375 C 219.359375 208.652344 226.988281 217.722656 231.746094 221.945312 C 233.246094 223.277344 233.410156 225.546875 232.164062 227.089844 C 233.925781 228.394531 235.761719 229.550781 237.625 230.539062 C 238.476562 228.753906 240.578125 227.917969 242.429688 228.683594 C 242.625 228.765625 242.820312 228.847656 243.015625 228.925781 C 244.878906 229.664062 245.808594 231.734375 245.167969 233.609375 C 247.09375 234.167969 248.96875 234.523438 250.742188 234.675781 C 251.296875 233.929688 251.84375 233.1875 252.371094 232.421875 C 255.585938 227.800781 258.253906 222.898438 260.363281 217.804688 C 259.59375 217.875 258.828125 217.90625 258.070312 217.90625 C 252.320312 217.90625 247.011719 215.964844 242.796875 212.1875"/><path fill="#69A3DB" d="M 169 196.636719 C 175.578125 192.078125 182.445312 186.605469 190.101562 180.289062 C 189.28125 180.183594 188.449219 180.121094 187.609375 180.121094 C 178.027344 180.121094 170.109375 187.347656 169 196.636719 Z M 187.609375 132.585938 C 155.222656 132.585938 128.871094 158.957031 128.871094 191.367188 C 128.871094 197.738281 129.878906 203.96875 131.851562 209.921875 C 136.660156 210.476562 141.695312 209.90625 147.164062 208.199219 C 146.378906 205.769531 145.808594 203.238281 145.46875 200.636719 C 145.414062 200.644531 145.359375 200.660156 145.300781 200.660156 C 145.246094 200.664062 145.191406 200.664062 145.136719 200.664062 C 143.140625 200.664062 141.480469 199.089844 141.394531 197.078125 C 141.367188 196.429688 141.355469 195.769531 141.355469 195.113281 C 141.355469 169.605469 162.101562 148.855469 187.609375 148.855469 C 194.34375 148.855469 200.839844 150.269531 206.914062 153.058594 C 208.792969 153.921875 209.617188 156.144531 208.757812 158.027344 C 208.734375 158.078125 208.695312 158.121094 208.671875 158.167969 C 210.355469 159.132812 211.96875 160.203125 213.492188 161.378906 C 213.804688 161.171875 214.109375 160.957031 214.417969 160.757812 C 220.25 156.929688 226.109375 154.265625 231.914062 152.777344 C 220.792969 140.042969 204.636719 132.585938 187.609375 132.585938 Z M 244.628906 183.03125 C 243.558594 184.628906 242.816406 186.410156 242.460938 188.300781 C 241.605469 192.871094 242.121094 197.363281 243.792969 201.078125 C 245.175781 194.285156 245.050781 187.714844 244.628906 183.03125"/><path fill="#176B7D" d="M 206.941406 240.203125 C 202.199219 243.410156 192.785156 249.375 181.355469 254.492188 C 179.460938 255.339844 177.246094 254.492188 176.398438 252.605469 C 176.394531 252.589844 176.394531 252.574219 176.382812 252.554688 C 174.296875 253.421875 172.15625 254.242188 169.980469 255.003906 C 169.984375 255.015625 169.992188 255.023438 169.996094 255.039062 C 170.628906 257.011719 169.539062 259.121094 167.570312 259.75 L 167.15625 259.886719 C 166.777344 260.007812 166.390625 260.066406 166.011719 260.066406 C 164.425781 260.066406 162.953125 259.046875 162.445312 257.453125 C 162.429688 257.414062 162.425781 257.371094 162.417969 257.324219 C 159.753906 258.027344 157.066406 258.601562 154.382812 259.011719 C 164.71875 263.839844 176.089844 266.375 187.609375 266.375 C 201.726562 266.375 215.3125 262.660156 227.335938 255.589844 C 219.863281 252.238281 211.578125 246.328125 206.941406 240.203125"/><path fill="#69DEEB" d="M 187.609375 108.863281 C 148.304688 108.863281 114.746094 138.183594 109.550781 177.070312 C 109.28125 179.089844 107.445312 180.507812 105.433594 180.292969 C 105.300781 181.796875 105.207031 183.308594 105.15625 184.835938 C 107.191406 184.859375 108.839844 186.5 108.859375 188.542969 C 108.863281 188.703125 108.863281 188.863281 108.863281 189.023438 C 108.910156 191.070312 107.308594 192.757812 105.277344 192.84375 C 105.359375 194.222656 105.472656 195.597656 105.625 196.953125 C 105.664062 196.949219 105.703125 196.949219 105.742188 196.949219 C 105.875 196.933594 106.003906 196.925781 106.136719 196.925781 C 106.257812 196.925781 106.375 196.933594 106.492188 196.949219 C 106.613281 196.957031 106.734375 196.976562 106.855469 197 C 106.976562 197.023438 107.089844 197.050781 107.203125 197.089844 C 107.320312 197.121094 107.4375 197.164062 107.546875 197.210938 C 107.664062 197.257812 107.765625 197.308594 107.875 197.367188 C 107.980469 197.421875 108.082031 197.484375 108.1875 197.550781 C 108.296875 197.621094 108.398438 197.703125 108.496094 197.785156 C 108.554688 197.832031 108.617188 197.871094 108.671875 197.921875 C 113.613281 202.527344 118.484375 205.78125 123.421875 207.761719 C 122.070312 202.441406 121.375 196.949219 121.375 191.367188 C 121.375 173.667969 128.261719 157.027344 140.765625 144.507812 C 153.277344 131.988281 169.910156 125.089844 187.609375 125.089844 C 208.371094 125.089844 227.984375 134.910156 240.503906 151.460938 C 247.566406 151.136719 254.253906 152.742188 259.773438 156.078125 C 247.488281 128.097656 219.445312 108.863281 187.609375 108.863281 Z M 203.789062 159.871094 C 198.699219 157.535156 193.257812 156.351562 187.609375 156.351562 C 166.238281 156.351562 148.851562 173.742188 148.851562 195.113281 C 148.851562 195.660156 148.859375 196.214844 148.882812 196.753906 C 148.972656 198.765625 147.457031 200.460938 145.46875 200.636719 C 145.808594 203.238281 146.378906 205.769531 147.164062 208.199219 C 147.21875 208.179688 147.273438 208.167969 147.328125 208.152344 C 151.773438 206.699219 156.425781 204.507812 161.496094 201.492188 C 161.414062 200.625 161.371094 199.746094 161.371094 198.863281 C 161.371094 184.394531 173.136719 172.625 187.609375 172.625 C 190.933594 172.625 194.136719 173.230469 197.179688 174.410156 C 200.59375 171.5625 204.023438 168.707031 207.414062 165.910156 C 209.425781 164.265625 211.464844 162.75 213.492188 161.378906 C 211.96875 160.203125 210.355469 159.132812 208.671875 158.167969 C 207.757812 159.945312 205.617188 160.710938 203.789062 159.871094 Z M 265.871094 178.746094 C 264.023438 176.671875 261.289062 175.773438 258.371094 175.773438 C 256.074219 175.773438 253.660156 176.332031 251.476562 177.316406 C 252.378906 182.835938 253.691406 195.488281 249.722656 208.054688 C 253.488281 210.46875 258.15625 211.054688 263.21875 209.722656 C 265.308594 202.632812 266.367188 195.203125 266.367188 187.617188 C 266.367188 184.710938 266.195312 181.734375 265.871094 178.746094"/><g clip-path="url(#a)"><path d="M 169.980469 255.003906 C 169.335938 253.058594 167.242188 251.984375 165.28125 252.613281 L 164.875 252.742188 C 162.941406 253.359375 161.871094 255.390625 162.417969 257.324219 C 162.425781 257.371094 162.429688 257.414062 162.445312 257.453125 C 162.953125 259.046875 164.425781 260.066406 166.011719 260.066406 C 166.390625 260.066406 166.777344 260.007812 167.15625 259.886719 L 167.570312 259.75 C 169.539062 259.121094 170.628906 257.011719 169.996094 255.039062 C 169.992188 255.023438 169.984375 255.015625 169.980469 255.003906 Z M 243.015625 228.925781 C 242.820312 228.847656 242.625 228.765625 242.429688 228.683594 C 240.578125 227.917969 238.476562 228.753906 237.625 230.539062 C 237.597656 230.597656 237.554688 230.652344 237.53125 230.714844 C 236.742188 232.628906 237.648438 234.820312 239.5625 235.613281 C 239.789062 235.707031 240.019531 235.796875 240.246094 235.890625 C 240.703125 236.070312 241.171875 236.15625 241.632812 236.15625 C 243.121094 236.15625 244.53125 235.257812 245.117188 233.789062 C 245.136719 233.730469 245.148438 233.671875 245.167969 233.609375 C 245.808594 231.734375 244.878906 229.664062 243.015625 228.925781 Z M 263.21875 209.722656 C 258.15625 211.054688 253.488281 210.46875 249.722656 208.054688 C 253.691406 195.488281 252.378906 182.835938 251.476562 177.316406 C 253.660156 176.332031 256.074219 175.773438 258.371094 175.773438 C 261.289062 175.773438 264.023438 176.671875 265.871094 178.746094 C 266.195312 181.734375 266.367188 184.710938 266.367188 187.617188 C 266.367188 195.203125 265.308594 202.632812 263.21875 209.722656 Z M 243.792969 201.078125 C 242.121094 197.363281 241.605469 192.871094 242.460938 188.300781 C 242.816406 186.410156 243.558594 184.628906 244.628906 183.03125 C 245.050781 187.714844 245.175781 194.285156 243.792969 201.078125 Z M 252.371094 232.421875 C 251.84375 233.1875 251.296875 233.929688 250.742188 234.675781 C 246.300781 240.65625 241.019531 245.949219 235.015625 250.460938 C 227.246094 248.363281 214.683594 239.957031 211.359375 233.226562 C 210.867188 232.230469 209.960938 231.5 208.882812 231.242188 C 207.800781 230.980469 206.660156 231.210938 205.769531 231.871094 C 205.648438 231.964844 193.761719 240.722656 178.289062 247.648438 C 176.417969 248.488281 175.574219 250.675781 176.382812 252.554688 C 176.394531 252.574219 176.394531 252.589844 176.398438 252.605469 C 177.246094 254.492188 179.460938 255.339844 181.355469 254.492188 C 192.785156 249.375 202.199219 243.410156 206.941406 240.203125 C 211.578125 246.328125 219.863281 252.238281 227.335938 255.589844 C 215.3125 262.660156 201.726562 266.375 187.609375 266.375 C 176.089844 266.375 164.71875 263.839844 154.382812 259.011719 C 152.667969 258.207031 150.980469 257.351562 149.324219 256.425781 C 141.964844 252.328125 135.320312 247.066406 129.644531 240.902344 C 132.660156 241.570312 135.890625 241.914062 139.3125 241.914062 C 140.027344 241.914062 140.746094 241.902344 141.476562 241.871094 C 153.566406 241.382812 167.417969 236.957031 181.527344 229.070312 C 193.070312 222.621094 204.160156 214.1875 214.027344 204.398438 C 215.058594 213.023438 219.402344 221.015625 226.769531 227.554688 C 228.316406 228.925781 230.6875 228.785156 232.0625 227.238281 C 232.101562 227.191406 232.128906 227.136719 232.164062 227.089844 C 233.410156 225.546875 233.246094 223.277344 231.746094 221.945312 C 226.988281 217.722656 219.359375 208.652344 221.734375 195.359375 C 222.03125 193.710938 221.191406 192.0625 219.683594 191.332031 C 218.171875 190.597656 216.355469 190.957031 215.246094 192.210938 C 193.648438 216.515625 163.882812 233.460938 141.171875 234.378906 C 132.128906 234.746094 125.007812 232.585938 119.976562 227.96875 C 116.628906 222.390625 114.019531 216.460938 112.160156 210.242188 C 117.449219 213.734375 122.8125 215.960938 128.371094 216.980469 C 128.40625 216.988281 128.441406 216.992188 128.472656 216.996094 C 128.488281 216.996094 128.5 217 128.511719 217 C 130.796875 217.417969 133.105469 217.632812 135.457031 217.632812 C 139.984375 217.632812 144.664062 216.855469 149.605469 215.296875 C 149.613281 215.292969 149.628906 215.285156 149.636719 215.28125 C 155.277344 213.441406 161.140625 210.59375 167.554688 206.578125 C 177.664062 200.246094 187.886719 191.902344 200.210938 181.644531 C 200.214844 181.636719 200.222656 181.636719 200.234375 181.628906 C 200.234375 181.625 200.242188 181.621094 200.246094 181.613281 C 204.222656 178.292969 208.234375 174.953125 212.167969 171.703125 C 214.273438 169.984375 216.414062 168.410156 218.527344 167.027344 C 225.503906 162.449219 232.425781 159.773438 239.082031 159.070312 C 250.109375 157.949219 258.1875 162.441406 262.429688 168.671875 C 256.734375 167.519531 250.300781 168.960938 245.265625 172.164062 C 239.828125 175.640625 236.214844 180.886719 235.09375 186.929688 C 233.242188 196.785156 236.09375 206.183594 242.691406 212.089844 C 242.703125 212.097656 242.71875 212.113281 242.730469 212.125 C 242.753906 212.144531 242.773438 212.167969 242.796875 212.1875 C 247.011719 215.964844 252.320312 217.90625 258.070312 217.90625 C 258.828125 217.90625 259.59375 217.875 260.363281 217.804688 C 258.253906 222.898438 255.585938 227.800781 252.371094 232.421875 Z M 190.101562 180.289062 C 182.445312 186.605469 175.578125 192.078125 169 196.636719 C 170.109375 187.347656 178.027344 180.121094 187.609375 180.121094 C 188.449219 180.121094 189.28125 180.183594 190.101562 180.289062 Z M 187.609375 132.585938 C 204.636719 132.585938 220.792969 140.042969 231.914062 152.777344 C 226.109375 154.265625 220.25 156.929688 214.417969 160.757812 C 214.109375 160.957031 213.804688 161.171875 213.492188 161.378906 C 211.464844 162.75 209.425781 164.265625 207.414062 165.910156 C 204.023438 168.707031 200.59375 171.5625 197.179688 174.410156 C 194.136719 173.230469 190.933594 172.625 187.609375 172.625 C 173.136719 172.625 161.371094 184.394531 161.371094 198.863281 C 161.371094 199.746094 161.414062 200.625 161.496094 201.492188 C 156.425781 204.507812 151.773438 206.699219 147.328125 208.152344 C 147.273438 208.167969 147.21875 208.179688 147.164062 208.199219 C 141.695312 209.90625 136.660156 210.476562 131.851562 209.921875 C 129.878906 203.96875 128.871094 197.738281 128.871094 191.367188 C 128.871094 158.957031 155.222656 132.585938 187.609375 132.585938 Z M 273.214844 177.007812 C 273.207031 176.914062 273.191406 176.820312 273.175781 176.726562 C 273.171875 176.691406 273.175781 176.660156 273.167969 176.621094 L 273.167969 176.609375 C 273.15625 176.503906 273.140625 176.347656 273.109375 176.160156 C 273.046875 175.640625 272.960938 175.128906 272.867188 174.617188 C 269.839844 154.667969 259.882812 136.359375 244.675781 122.933594 C 228.925781 109.023438 208.660156 101.367188 187.609375 101.367188 C 166.578125 101.367188 146.328125 109.011719 130.574219 122.898438 C 114.96875 136.660156 104.867188 155.542969 102.121094 176.078125 C 101.847656 178.132812 103.289062 180.015625 105.339844 180.289062 C 105.371094 180.292969 105.402344 180.289062 105.433594 180.292969 C 107.445312 180.507812 109.28125 179.089844 109.550781 177.070312 C 114.746094 138.183594 148.304688 108.863281 187.609375 108.863281 C 219.445312 108.863281 247.488281 128.097656 259.773438 156.078125 C 254.253906 152.742188 247.566406 151.136719 240.503906 151.460938 C 227.984375 134.910156 208.371094 125.089844 187.609375 125.089844 C 169.910156 125.089844 153.277344 131.988281 140.765625 144.507812 C 128.261719 157.027344 121.375 173.667969 121.375 191.367188 C 121.375 196.949219 122.070312 202.441406 123.421875 207.761719 C 118.484375 205.78125 113.613281 202.527344 108.671875 197.921875 C 108.617188 197.871094 108.554688 197.832031 108.496094 197.785156 C 108.398438 197.703125 108.296875 197.621094 108.1875 197.550781 C 108.085938 197.484375 107.980469 197.421875 107.875 197.367188 C 107.765625 197.308594 107.660156 197.253906 107.546875 197.210938 C 107.4375 197.164062 107.320312 197.125 107.203125 197.089844 C 107.089844 197.054688 106.972656 197.023438 106.855469 197 C 106.734375 196.976562 106.613281 196.957031 106.492188 196.949219 C 106.371094 196.933594 106.253906 196.925781 106.136719 196.925781 C 106.003906 196.925781 105.875 196.933594 105.742188 196.949219 C 105.703125 196.949219 105.664062 196.949219 105.625 196.953125 C 105.589844 196.960938 105.554688 196.953125 105.523438 196.960938 C 105.480469 196.96875 105.445312 196.984375 105.40625 196.992188 C 105.269531 197.019531 105.144531 197.054688 105.015625 197.09375 C 104.90625 197.125 104.796875 197.160156 104.691406 197.203125 C 104.574219 197.25 104.472656 197.308594 104.363281 197.367188 C 104.253906 197.425781 104.144531 197.484375 104.039062 197.550781 C 103.945312 197.613281 103.859375 197.6875 103.769531 197.757812 C 103.667969 197.84375 103.5625 197.929688 103.464844 198.027344 C 103.4375 198.054688 103.402344 198.078125 103.375 198.101562 C 103.324219 198.160156 103.292969 198.222656 103.246094 198.277344 C 103.15625 198.378906 103.078125 198.484375 103.003906 198.59375 C 102.9375 198.691406 102.882812 198.796875 102.824219 198.902344 C 102.765625 199.007812 102.710938 199.121094 102.664062 199.230469 C 102.617188 199.34375 102.578125 199.457031 102.542969 199.574219 C 102.507812 199.691406 102.476562 199.808594 102.453125 199.925781 C 102.429688 200.042969 102.414062 200.164062 102.402344 200.285156 C 102.390625 200.40625 102.378906 200.527344 102.378906 200.644531 C 102.378906 200.773438 102.390625 200.90625 102.402344 201.039062 C 102.410156 201.113281 102.402344 201.183594 102.417969 201.257812 C 104.203125 212.363281 108.039062 222.804688 113.824219 232.300781 C 113.847656 232.339844 113.878906 232.375 113.902344 232.414062 C 113.933594 232.457031 113.960938 232.503906 113.992188 232.542969 C 121.742188 245.222656 132.691406 255.742188 145.667969 262.96875 C 158.394531 270.101562 172.894531 273.871094 187.609375 273.871094 C 205.859375 273.871094 223.316406 268.21875 238.078125 257.535156 C 246.089844 251.769531 252.976562 244.753906 258.535156 236.6875 C 263.453125 229.613281 267.230469 221.945312 269.78125 213.886719 C 269.78125 213.882812 269.78125 213.882812 269.78125 213.882812 C 269.785156 213.875 269.785156 213.871094 269.789062 213.863281 C 269.789062 213.863281 269.789062 213.859375 269.789062 213.859375 C 272.492188 205.46875 273.863281 196.640625 273.863281 187.617188 C 273.863281 184.136719 273.644531 180.570312 273.214844 177.007812 Z M 105.113281 192.855469 C 105.140625 192.855469 105.171875 192.855469 105.199219 192.851562 C 105.226562 192.851562 105.25 192.84375 105.277344 192.84375 C 107.308594 192.757812 108.910156 191.070312 108.863281 189.023438 C 108.863281 188.863281 108.863281 188.703125 108.859375 188.542969 C 108.839844 186.5 107.191406 184.859375 105.15625 184.835938 C 105.140625 184.832031 105.125 184.828125 105.113281 184.828125 C 105.097656 184.828125 105.089844 184.828125 105.074219 184.828125 C 103.007812 184.847656 101.339844 186.542969 101.363281 188.613281 C 101.367188 188.804688 101.367188 188.992188 101.367188 189.183594 C 101.414062 191.226562 103.082031 192.855469 105.113281 192.855469 Z M 145.136719 200.664062 C 145.191406 200.664062 145.246094 200.664062 145.300781 200.660156 C 145.359375 200.660156 145.414062 200.644531 145.46875 200.636719 C 147.457031 200.460938 148.972656 198.765625 148.882812 196.753906 C 148.859375 196.214844 148.851562 195.660156 148.851562 195.113281 C 148.851562 173.742188 166.238281 156.351562 187.609375 156.351562 C 193.257812 156.351562 198.699219 157.535156 203.789062 159.871094 C 205.617188 160.710938 207.757812 159.945312 208.671875 158.167969 C 208.695312 158.121094 208.734375 158.078125 208.757812 158.027344 C 209.617188 156.144531 208.792969 153.921875 206.914062 153.058594 C 200.839844 150.269531 194.34375 148.855469 187.609375 148.855469 C 162.101562 148.855469 141.355469 169.605469 141.355469 195.113281 C 141.355469 195.769531 141.367188 196.429688 141.394531 197.078125 C 141.480469 199.089844 143.140625 200.664062 145.136719 200.664062"/></g><path fill="#176B7D" d="M 62.707031 164.710938 L 69.609375 178.691406 C 69.714844 178.9375 69.960938 179.109375 70.242188 179.144531 L 85.703125 181.382812 C 86.367188 181.488281 86.648438 182.328125 86.15625 182.78125 L 74.976562 193.652344 C 74.765625 193.828125 74.695312 194.105469 74.730469 194.386719 L 77.359375 209.765625 C 77.464844 210.429688 76.761719 210.953125 76.167969 210.640625 L 62.320312 203.371094 C 62.074219 203.230469 61.792969 203.230469 61.546875 203.371094 L 47.703125 210.640625 C 47.105469 210.953125 46.402344 210.429688 46.507812 209.765625 L 49.136719 194.386719 C 49.171875 194.105469 49.105469 193.863281 48.894531 193.652344 L 37.746094 182.78125 C 37.253906 182.292969 37.535156 181.488281 38.199219 181.382812 L 53.660156 179.144531 C 53.941406 179.109375 54.152344 178.9375 54.292969 178.691406 L 61.199219 164.710938 C 61.511719 164.117188 62.390625 164.117188 62.707031 164.710938 Z M 62.707031 164.710938"/><g><g><g><path d="M 7.96875 -13.640625 L 1.453125 -7.296875 L 3.140625 -3.0625 L -0.171875 0.171875 L -7.59375 -19.953125 L -4.390625 -23.078125 L 15.5625 -15.171875 L 12.15625 -11.84375 Z M 4.546875 -15.09375 L -2.890625 -18.3125 L 0.109375 -10.765625 Z M 4.546875 -15.09375" transform="translate(86.656 109.115)"/></g></g></g><g><g><g><path d="M 21.078125 -10.625 C 20.953125 -9.625 20.617188 -8.710938 20.078125 -7.890625 C 19.535156 -7.066406 18.800781 -6.367188 17.875 -5.796875 C 16.632812 -5.023438 15.347656 -4.59375 14.015625 -4.5 C 12.679688 -4.414062 10.953125 -4.644531 8.828125 -5.1875 C 7.210938 -4.445312 5.570312 -4.097656 3.90625 -4.140625 C 2.238281 -4.191406 0.695312 -4.625 -0.71875 -5.4375 C -2.144531 -6.257812 -3.320312 -7.414062 -4.25 -8.90625 C -5.269531 -10.539062 -5.789062 -12.25 -5.8125 -14.03125 C -5.832031 -15.820312 -5.378906 -17.523438 -4.453125 -19.140625 C -3.535156 -20.753906 -2.210938 -22.097656 -0.484375 -23.171875 C 1.253906 -24.242188 3.039062 -24.832031 4.875 -24.9375 C 6.71875 -25.050781 8.441406 -24.703125 10.046875 -23.890625 C 11.648438 -23.085938 12.960938 -21.867188 13.984375 -20.234375 C 15.179688 -18.296875 15.6875 -16.257812 15.5 -14.125 C 15.320312 -11.988281 14.519531 -10.078125 13.09375 -8.390625 C 13.726562 -8.222656 14.289062 -8.164062 14.78125 -8.21875 C 15.28125 -8.269531 15.738281 -8.429688 16.15625 -8.703125 C 17.1875 -9.335938 17.832031 -10.304688 18.09375 -11.609375 Z M -0.34375 -11.328125 C 0.289062 -10.296875 1.085938 -9.515625 2.046875 -8.984375 C 3.003906 -8.460938 4.019531 -8.21875 5.09375 -8.25 C 6.164062 -8.289062 7.191406 -8.617188 8.171875 -9.234375 C 9.148438 -9.847656 9.894531 -10.628906 10.40625 -11.578125 C 10.925781 -12.523438 11.160156 -13.539062 11.109375 -14.625 C 11.054688 -15.707031 10.710938 -16.765625 10.078125 -17.796875 C 9.429688 -18.828125 8.628906 -19.601562 7.671875 -20.125 C 6.722656 -20.65625 5.707031 -20.898438 4.625 -20.859375 C 3.550781 -20.828125 2.523438 -20.503906 1.546875 -19.890625 C 0.566406 -19.273438 -0.175781 -18.492188 -0.6875 -17.546875 C -1.195312 -16.597656 -1.425781 -15.582031 -1.375 -14.5 C -1.332031 -13.414062 -0.988281 -12.359375 -0.34375 -11.328125 Z M -0.34375 -11.328125" transform="translate(107.003 90.094)"/></g></g></g><g><g><g><path d="M 10.515625 -3.328125 C 7.867188 -2.398438 5.554688 -2.410156 3.578125 -3.359375 C 1.597656 -4.304688 0.128906 -6.140625 -0.828125 -8.859375 L -4.453125 -19.203125 L -0.171875 -20.703125 L 3.40625 -10.515625 C 4.5625 -7.203125 6.515625 -6.023438 9.265625 -6.984375 C 10.597656 -7.453125 11.472656 -8.210938 11.890625 -9.265625 C 12.316406 -10.316406 12.234375 -11.695312 11.640625 -13.40625 L 8.0625 -23.59375 L 12.296875 -25.078125 L 15.921875 -14.734375 C 16.878906 -12.015625 16.878906 -9.664062 15.921875 -7.6875 C 14.960938 -5.707031 13.160156 -4.253906 10.515625 -3.328125 Z M 10.515625 -3.328125" transform="translate(132.89 74.929)"/></g></g></g><g><g><g><path d="M 14.578125 -6.09375 L 5.546875 -4.9375 L 4.359375 -0.546875 L -0.25 0.03125 L 5.953125 -20.5 L 10.390625 -21.078125 L 21.5625 -2.734375 L 16.828125 -2.140625 Z M 12.71875 -9.3125 L 8.71875 -16.359375 L 6.5625 -8.53125 Z M 12.71875 -9.3125" transform="translate(160.015 66.168)"/></g></g></g><g><g><g><path d="M 14.765625 1.171875 L 11.4375 -4.5625 L 11.21875 -4.578125 L 7.28125 -4.890625 L 6.84375 0.546875 L 2.328125 0.1875 L 3.875 -19.34375 L 12.328125 -18.671875 C 14.046875 -18.535156 15.523438 -18.128906 16.765625 -17.453125 C 18.003906 -16.773438 18.921875 -15.878906 19.515625 -14.765625 C 20.109375 -13.648438 20.347656 -12.363281 20.234375 -10.90625 C 20.117188 -9.457031 19.671875 -8.238281 18.890625 -7.25 C 18.117188 -6.257812 17.066406 -5.535156 15.734375 -5.078125 L 19.625 1.5625 Z M 15.671875 -11.265625 C 15.765625 -12.367188 15.476562 -13.242188 14.8125 -13.890625 C 14.144531 -14.535156 13.140625 -14.910156 11.796875 -15.015625 L 8.109375 -15.3125 L 7.5625 -8.5 L 11.25 -8.203125 C 12.59375 -8.097656 13.644531 -8.3125 14.40625 -8.84375 C 15.164062 -9.382812 15.585938 -10.191406 15.671875 -11.265625 Z M 15.671875 -11.265625" transform="translate(187.805 63.354)"/></g></g></g><g><g><g><path d="M 6.96875 -18.453125 L 11.359375 -17.375 L 6.65625 1.640625 L 2.265625 0.5625 Z M 6.96875 -18.453125" transform="translate(215.04 66.544)"/></g></g></g><g><g><g><path d="M 9.96875 4.71875 C 7.40625 3.59375 5.71875 2.007812 4.90625 -0.03125 C 4.101562 -2.070312 4.273438 -4.410156 5.421875 -7.046875 L 9.796875 -17.109375 L 13.9375 -15.296875 L 9.640625 -5.390625 C 8.234375 -2.171875 8.867188 0.015625 11.546875 1.171875 C 12.847656 1.742188 14.007812 1.785156 15.03125 1.296875 C 16.050781 0.816406 16.925781 -0.25 17.65625 -1.90625 L 21.953125 -11.8125 L 26.0625 -10.03125 L 21.6875 0.03125 C 20.539062 2.664062 18.941406 4.382812 16.890625 5.1875 C 14.847656 5.988281 12.539062 5.832031 9.96875 4.71875 Z M 9.96875 4.71875" transform="translate(230.606 70.426)"/></g></g></g><g><g><g><path d="M 16.171875 12.03125 L 23.171875 2.578125 L 12.75 6.90625 L 11.109375 5.671875 L 12.15625 -5.3125 L 5.28125 3.921875 L 1.875 1.390625 L 13.578125 -14.328125 L 16.578125 -12.09375 L 15.1875 2.046875 L 28.265625 -3.390625 L 31.25 -1.171875 L 19.59375 14.578125 Z M 16.171875 12.03125" transform="translate(256.442 82.163)"/></g></g></g><g><g><g><path d="M 26.25 -10.328125 L 18.75 7.765625 L 15.3125 6.34375 L 10.84375 -8.390625 L 6.28125 2.609375 L 2.15625 0.890625 L 9.65625 -17.203125 L 13.109375 -15.765625 L 17.5625 -1.0625 L 22.109375 -12.046875 Z M 26.25 -10.328125" transform="translate(118.824 314.898)"/></g></g></g><g><g><g><path d="M 17.875 -0.28125 L 17.1875 3.296875 L 2.28125 0.4375 L 5.96875 -18.8125 L 20.515625 -16.03125 L 19.828125 -12.453125 L 9.703125 -14.390625 L 8.90625 -10.21875 L 17.859375 -8.5 L 17.1875 -5.03125 L 8.234375 -6.75 L 7.390625 -2.296875 Z M 17.875 -0.28125" transform="translate(149.72 326.35)"/></g></g></g><g><g><g><path d="M 14.671875 -0.078125 L 9.90625 -6.84375 L 5.296875 -0.03125 L 0.078125 0 L 7.296875 -10 L 0.34375 -19.59375 L 5.484375 -19.625 L 10.046875 -13.296875 L 14.421875 -19.671875 L 19.328125 -19.6875 L 12.546875 -10.203125 L 19.90625 -0.109375 Z M 14.671875 -0.078125" transform="translate(178.405 330.888)"/></g></g></g><g><g><g><path d="M 10.859375 -1.96875 C 8.117188 -1.382812 5.820312 -1.6875 3.96875 -2.875 C 2.125 -4.070312 0.898438 -6.078125 0.296875 -8.890625 L -2 -19.609375 L 2.421875 -20.5625 L 4.6875 -10.015625 C 5.425781 -6.578125 7.222656 -5.160156 10.078125 -5.765625 C 11.460938 -6.066406 12.429688 -6.707031 12.984375 -7.6875 C 13.535156 -8.675781 13.617188 -10.0625 13.234375 -11.84375 L 10.96875 -22.390625 L 15.359375 -23.328125 L 17.65625 -12.609375 C 18.257812 -9.796875 17.960938 -7.460938 16.765625 -5.609375 C 15.566406 -3.765625 13.597656 -2.550781 10.859375 -1.96875 Z M 10.859375 -1.96875" transform="translate(208.747 329.768)"/></g></g></g><g><g><g><path d="M 8.1875 -3.171875 C 6.757812 -2.554688 5.296875 -2.148438 3.796875 -1.953125 C 2.304688 -1.765625 1.023438 -1.8125 -0.046875 -2.09375 L 0.015625 -5.828125 C 1.015625 -5.597656 2.125 -5.539062 3.34375 -5.65625 C 4.5625 -5.78125 5.695312 -6.070312 6.75 -6.53125 C 7.925781 -7.039062 8.722656 -7.59375 9.140625 -8.1875 C 9.554688 -8.789062 9.632812 -9.382812 9.375 -9.96875 C 9.1875 -10.40625 8.863281 -10.691406 8.40625 -10.828125 C 7.957031 -10.960938 7.429688 -11 6.828125 -10.9375 C 6.234375 -10.882812 5.445312 -10.765625 4.46875 -10.578125 C 2.96875 -10.304688 1.707031 -10.144531 0.6875 -10.09375 C -0.320312 -10.039062 -1.296875 -10.238281 -2.234375 -10.6875 C -3.179688 -11.132812 -3.910156 -11.957031 -4.421875 -13.15625 C -4.878906 -14.207031 -5.007812 -15.273438 -4.8125 -16.359375 C -4.613281 -17.453125 -4.050781 -18.492188 -3.125 -19.484375 C -2.207031 -20.472656 -0.925781 -21.320312 0.71875 -22.03125 C 1.863281 -22.53125 3.039062 -22.878906 4.25 -23.078125 C 5.46875 -23.285156 6.597656 -23.316406 7.640625 -23.171875 L 7.734375 -19.4375 C 5.671875 -19.664062 3.804688 -19.421875 2.140625 -18.703125 C 0.972656 -18.191406 0.195312 -17.625 -0.1875 -17 C -0.582031 -16.382812 -0.644531 -15.773438 -0.375 -15.171875 C -0.101562 -14.546875 0.414062 -14.21875 1.1875 -14.1875 C 1.957031 -14.164062 3.0625 -14.300781 4.5 -14.59375 C 6.019531 -14.863281 7.28125 -15.023438 8.28125 -15.078125 C 9.289062 -15.128906 10.265625 -14.9375 11.203125 -14.5 C 12.140625 -14.070312 12.867188 -13.257812 13.390625 -12.0625 C 13.828125 -11.039062 13.941406 -9.976562 13.734375 -8.875 C 13.535156 -7.769531 12.96875 -6.722656 12.03125 -5.734375 C 11.101562 -4.742188 9.820312 -3.890625 8.1875 -3.171875 Z M 8.1875 -3.171875" transform="translate(240.088 321.797)"/></g></g></g><path fill="#176B7D" d="M 313.90625 164.710938 L 320.8125 178.691406 C 320.917969 178.9375 321.164062 179.109375 321.445312 179.144531 L 336.902344 181.382812 C 337.570312 181.488281 337.851562 182.328125 337.359375 182.78125 L 326.175781 193.652344 C 325.964844 193.828125 325.894531 194.105469 325.929688 194.386719 L 328.558594 209.765625 C 328.664062 210.429688 327.964844 210.953125 327.367188 210.640625 L 313.519531 203.371094 C 313.277344 203.230469 312.996094 203.230469 312.75 203.371094 L 298.902344 210.640625 C 298.308594 210.953125 297.605469 210.429688 297.710938 209.765625 L 300.339844 194.386719 C 300.375 194.105469 300.304688 193.863281 300.09375 193.652344 L 288.945312 182.78125 C 288.457031 182.292969 288.738281 181.488281 289.402344 181.382812 L 304.863281 179.144531 C 305.144531 179.109375 305.351562 178.9375 305.492188 178.691406 L 312.398438 164.710938 C 312.714844 164.117188 313.589844 164.117188 313.90625 164.710938 Z M 313.90625 164.710938"/></svg>