<svg xmlns="http://www.w3.org/2000/svg" width="375" viewBox="0 0 375 375" height="375" version="1.0"><path fill="#FFF" d="M-37.5 -37.5H412.5V412.5H-37.5z"/><path fill="#FFF" d="M-37.5 -37.5H412.5V412.5H-37.5z"/><path fill="#FFF" d="M-37.5 -37.5H412.5V412.5H-37.5z"/><path fill="#3871C1" d="M 207.199219 163.578125 C 205.355469 162.417969 209.566406 149.550781 189.390625 139.328125 C 189.390625 139.328125 182.421875 126.386719 171.789062 126.957031 C 171.789062 126.957031 179.726562 131.683594 176.695312 137.21875 C 176.695312 137.21875 143.109375 136.558594 139.480469 174.847656 C 139.480469 174.847656 121.941406 175.84375 123.824219 195.695312 C 123.824219 195.695312 123.769531 186.058594 130.777344 187.296875 C 137.285156 188.449219 140.992188 185.949219 140.992188 185.949219 C 140.992188 185.949219 142.171875 190.941406 148.875 190.941406 C 154.382812 190.941406 155.910156 197.957031 155.910156 197.957031 C 155.910156 197.957031 157.164062 181.71875 144.984375 176.246094 C 144.984375 176.246094 149.308594 155.046875 170.195312 157.421875 C 170.195312 157.421875 174.46875 162.089844 165.617188 167.914062 C 165.617188 167.914062 172.316406 169.117188 182.054688 159.253906 C 182.054688 159.253906 214.871094 177.160156 217.035156 173.855469 C 218.082031 172.257812 210.90625 165.90625 207.199219 163.578125"/><path fill="#00C2CB" d="M 180.632812 111.867188 C 160.285156 115.515625 144.355469 129.429688 137.210938 147.332031 C 144.246094 132.25 158.25 120.714844 175.855469 117.558594 C 204.628906 112.402344 232.128906 131.578125 237.28125 160.394531 C 242.433594 189.207031 223.28125 216.746094 194.507812 221.90625 C 176.902344 225.0625 159.773438 219.105469 147.949219 207.40625 C 160.851562 221.714844 180.617188 229.230469 200.960938 225.585938 C 232.320312 219.964844 253.1875 189.949219 247.574219 158.546875 C 241.960938 127.144531 211.992188 106.246094 180.632812 111.867188"/><path fill="#51ADE5" d="M 153.46875 207.351562 C 153.46875 207.351562 163.046875 193.914062 183.347656 204.269531 C 203.648438 214.628906 221.265625 198.96875 223.566406 183.976562 C 223.566406 183.976562 224.265625 211.492188 197.265625 214.75 C 176.886719 217.210938 170.40625 195.242188 153.46875 207.351562"/><path fill="#51ADE5" d="M 185.261719 198.804688 C 196.839844 204.710938 207.546875 202.15625 215.035156 196.085938 C 207.8125 200.554688 198.355469 201.863281 188.230469 196.695312 C 173.402344 189.132812 164.296875 194.261719 160.464844 197.578125 C 165.238281 194.816406 173.425781 192.769531 185.261719 198.804688"/><g fill="#545454"><g><g><path d="M 18.230469 -21.996094 L 18.230469 -4.28125 L 6.375 -21.996094 L 3.453125 -21.996094 L 3.453125 0 L 6.203125 0 L 6.203125 -17.792969 L 18.058594 0 L 21.011719 0 L 21.011719 -21.996094 Z M 18.230469 -21.996094" transform="translate(127.674 258.74)"/></g></g></g><g fill="#545454"><g><g><path d="M 15.246094 -19.449219 L 15.246094 -21.996094 L 3.453125 -21.996094 L 3.453125 0 L 15.246094 0 L 15.246094 -2.546875 L 6.3125 -2.546875 L 6.3125 -9.734375 L 14.183594 -9.734375 L 14.183594 -12.25 L 6.3125 -12.25 L 6.3125 -19.449219 Z M 15.246094 -19.449219" transform="translate(155.624 258.74)"/></g></g></g><g fill="#545454"><g><g><path d="M 0.890625 0 L 4.4375 0 L 11.125 -9.328125 L 17.808594 0 L 21.339844 0 L 12.777344 -11.484375 L 20.949219 -21.996094 L 17.558594 -21.996094 L 11.125 -13.464844 L 4.671875 -21.996094 L 1.28125 -21.996094 L 9.46875 -11.484375 Z M 0.890625 0" transform="translate(176.264 258.74)"/></g></g></g><g fill="#545454"><g><g><path d="M 10.984375 0.296875 C 15.527344 0.296875 19.011719 -2.453125 19.011719 -7.296875 L 19.011719 -21.996094 L 16.214844 -21.996094 L 16.214844 -7.6875 C 16.214844 -4.03125 13.902344 -2.25 10.984375 -2.25 C 8.0625 -2.25 5.796875 -4 5.796875 -7.6875 L 5.796875 -21.996094 L 3 -21.996094 L 3 -7.296875 C 3 -2.453125 6.46875 0.296875 10.984375 0.296875 Z M 10.984375 0.296875" transform="translate(201.981 258.74)"/></g></g></g><g fill="#545454"><g><g><path d="M 10.265625 0.296875 C 14.558594 0.296875 18.027344 -1.734375 18.027344 -5.953125 C 18.027344 -10.421875 14.011719 -11.453125 10.46875 -12.390625 C 7.609375 -13.121094 5.109375 -13.808594 5.109375 -16.261719 C 5.109375 -18.855469 7.421875 -19.871094 9.703125 -19.871094 C 12.25 -19.871094 14.402344 -18.746094 15.074219 -16.277344 L 17.683594 -16.949219 C 16.855469 -20.636719 13.464844 -22.292969 9.59375 -22.292969 C 5.6875 -22.292969 2.296875 -20.277344 2.296875 -16.214844 C 2.296875 -12.15625 5.703125 -11.109375 9.140625 -10.1875 C 12.203125 -9.359375 15.121094 -8.640625 15.167969 -5.875 C 15.214844 -3.109375 12.792969 -2.109375 10.3125 -2.109375 C 7.328125 -2.109375 5.0625 -3.578125 4.390625 -6.1875 L 1.640625 -5.53125 C 2.390625 -1.890625 5.6875 0.296875 10.265625 0.296875 Z M 10.265625 0.296875" transform="translate(227.48 258.74)"/></g></g></g><g><g><g><path d="M 7.140625 0 L 8.328125 0 L 5.03125 -8.9375 L 3.675781 -8.9375 L 0.378906 0 L 1.566406 0 L 2.328125 -2.140625 L 6.371094 -2.140625 Z M 2.691406 -3.140625 L 4.355469 -7.792969 L 6.015625 -3.140625 Z M 2.691406 -3.140625" transform="translate(128.112 271.29)"/></g></g></g><g><g><g><path d="M 9.984375 0.449219 L 8.472656 -1.167969 C 9.242188 -1.953125 9.703125 -3.078125 9.703125 -4.472656 C 9.703125 -7.324219 7.75 -9.054688 5.234375 -9.054688 C 2.710938 -9.054688 0.769531 -7.324219 0.769531 -4.472656 C 0.769531 -1.613281 2.710938 0.121094 5.234375 0.121094 C 6.078125 0.121094 6.859375 -0.0742188 7.519531 -0.4375 L 8.75 0.855469 Z M 1.898438 -4.472656 C 1.898438 -6.703125 3.375 -7.972656 5.234375 -7.972656 C 7.089844 -7.972656 8.5625 -6.703125 8.5625 -4.472656 C 8.5625 -2.183594 7.089844 -0.914062 5.234375 -0.914062 C 3.375 -0.914062 1.898438 -2.183594 1.898438 -4.472656 Z M 1.898438 -4.472656" transform="translate(143.786 271.29)"/></g></g></g><g><g><g><path d="M 4.460938 0.121094 C 6.308594 0.121094 7.722656 -0.996094 7.722656 -2.964844 L 7.722656 -8.9375 L 6.585938 -8.9375 L 6.585938 -3.121094 C 6.585938 -1.636719 5.648438 -0.914062 4.460938 -0.914062 C 3.273438 -0.914062 2.355469 -1.625 2.355469 -3.121094 L 2.355469 -8.9375 L 1.21875 -8.9375 L 1.21875 -2.964844 C 1.21875 -0.996094 2.628906 0.121094 4.460938 0.121094 Z M 4.460938 0.121094" transform="translate(161.326 271.29)"/></g></g></g><g><g><g><path d="M 7.140625 0 L 8.328125 0 L 5.03125 -8.9375 L 3.675781 -8.9375 L 0.378906 0 L 1.566406 0 L 2.328125 -2.140625 L 6.371094 -2.140625 Z M 2.691406 -3.140625 L 4.355469 -7.792969 L 6.015625 -3.140625 Z M 2.691406 -3.140625" transform="translate(177.235 271.29)"/></g></g></g><g><g><g><path d="M 7.566406 0 L 5.335938 -3.59375 C 5.792969 -3.699219 6.164062 -3.882812 6.460938 -4.136719 C 7.070312 -4.609375 7.367188 -5.375 7.367188 -6.339844 C 7.367188 -7.304688 7.050781 -7.988281 6.410156 -8.402344 C 5.890625 -8.765625 5.152344 -8.9375 4.152344 -8.9375 L 1.402344 -8.9375 L 1.402344 0 L 2.539062 0 L 2.539062 -3.472656 L 4.226562 -3.472656 L 6.238281 0 Z M 2.539062 -7.953125 L 4.003906 -7.953125 C 4.785156 -7.953125 5.351562 -7.871094 5.730469 -7.558594 C 6.027344 -7.3125 6.207031 -6.90625 6.207031 -6.296875 C 6.207031 -5.660156 6.042969 -5.234375 5.75 -4.949219 C 5.386719 -4.582031 4.804688 -4.460938 4.003906 -4.460938 L 2.539062 -4.460938 Z M 2.539062 -7.953125" transform="translate(192.91 271.29)"/></g></g></g><g><g><g><path d="M 1.402344 0 L 2.539062 0 L 2.539062 -8.9375 L 1.402344 -8.9375 Z M 1.402344 0" transform="translate(208.147 271.29)"/></g></g></g><g><g><g><path d="M 4.460938 0.121094 C 6.308594 0.121094 7.722656 -0.996094 7.722656 -2.964844 L 7.722656 -8.9375 L 6.585938 -8.9375 L 6.585938 -3.121094 C 6.585938 -1.636719 5.648438 -0.914062 4.460938 -0.914062 C 3.273438 -0.914062 2.355469 -1.625 2.355469 -3.121094 L 2.355469 -8.9375 L 1.21875 -8.9375 L 1.21875 -2.964844 C 1.21875 -0.996094 2.628906 0.121094 4.460938 0.121094 Z M 4.460938 0.121094" transform="translate(219.055 271.29)"/></g></g></g><g><g><g><path d="M 10.851562 0 L 10.179688 -8.9375 L 8.667969 -8.9375 L 5.953125 -1.96875 L 3.242188 -8.9375 L 1.746094 -8.9375 L 1.066406 0 L 2.175781 0 L 2.78125 -7.347656 L 5.617188 0 L 6.296875 0 L 9.152344 -7.375 L 9.75 0 Z M 10.851562 0" transform="translate(234.965 271.29)"/></g></g></g></svg>