<svg xmlns="http://www.w3.org/2000/svg" width="1190.25" viewBox="0 0 1190.25 1683.75" height="1683.75" version="1.0"><defs><clipPath id="a"><path d="M 0 0.40625 L 1189.5 0.40625 L 1189.5 1683.09375 L 0 1683.09375 Z M 0 0.40625"/></clipPath><clipPath id="b"><path d="M 488 690 L 1189.5 690 L 1189.5 778.058594 L 488 778.058594 Z M 488 690"/></clipPath><clipPath id="c"><path d="M 0 749 L 1189.5 749 L 1189.5 1683.09375 L 0 1683.09375 Z M 0 749"/></clipPath><clipPath id="d"><path d="M 0 999 L 1189.5 999 L 1189.5 1683.09375 L 0 1683.09375 Z M 0 999"/></clipPath><clipPath id="e"><path d="M 0 1247 L 1189.5 1247 L 1189.5 1683.09375 L 0 1683.09375 Z M 0 1247"/></clipPath><clipPath id="f"><path d="M 0 683 L 447.597656 683 L 447.597656 787.003906 L 0 787.003906 Z M 0 683"/></clipPath><clipPath id="g"><path d="M 0 758 L 242 758 L 242 841.796875 L 0 841.796875 Z M 0 758"/></clipPath><clipPath id="h"><path d="M 0 1159 L 579 1159 L 579 1299 L 0 1299 Z M 0 1159"/></clipPath><clipPath id="i"><path d="M -84.800781 1174.832031 L 570.691406 1092.757812 L 587.460938 1226.683594 L -68.03125 1308.757812 Z M -84.800781 1174.832031"/></clipPath><clipPath id="j"><path d="M -1183.386719 1312.386719 L 570.296875 1092.808594 L 587.066406 1226.734375 L -1166.617188 1446.316406 Z M -1183.386719 1312.386719"/></clipPath><clipPath id="k"><path d="M 0 1270 L 325 1270 L 325 1409 L 0 1409 Z M 0 1270"/></clipPath><clipPath id="l"><path d="M -338.660156 1285.140625 L 316.832031 1203.066406 L 333.601562 1336.992188 L -321.890625 1419.066406 Z M -338.660156 1285.140625"/></clipPath><clipPath id="m"><path d="M -1437.25 1422.695312 L 316.433594 1203.113281 L 333.203125 1337.039062 L -1420.480469 1556.621094 Z M -1437.25 1422.695312"/></clipPath><clipPath id="n"><path d="M 671 1032 L 1189.5 1032 L 1189.5 1189 L 671 1189 Z M 671 1032"/></clipPath><clipPath id="o"><path d="M 1334.839844 1158.914062 L 681.371094 1255.78125 L 661.582031 1122.269531 L 1315.050781 1025.402344 Z M 1334.839844 1158.914062"/></clipPath><clipPath id="p"><path d="M 2430.039062 996.570312 L 681.765625 1255.722656 L 661.976562 1122.210938 L 2410.25 863.054688 Z M 2430.039062 996.570312"/></clipPath><clipPath id="q"><path d="M 956 970 L 1189.5 970 L 1189.5 1078 L 956 1078 Z M 956 970"/></clipPath><clipPath id="r"><path d="M 1407.855469 1056.902344 L 962.816406 1122.875 L 949.402344 1032.382812 L 1394.441406 966.410156 Z M 1407.855469 1056.902344"/></clipPath><clipPath id="s"><path d="M 2153.429688 946.382812 L 962.941406 1122.855469 L 949.527344 1032.363281 L 2140.015625 855.890625 Z M 2153.429688 946.382812"/></clipPath><clipPath id="t"><path d="M 0 1346 L 958 1346 L 958 1572 L 0 1572 Z M 0 1346"/></clipPath><clipPath id="u"><path d="M -120.117188 1371.304688 L 943.851562 1238.085938 L 971.054688 1455.34375 L -92.914062 1588.5625 Z M -120.117188 1371.304688"/></clipPath><clipPath id="v"><path d="M -1902.828125 1594.519531 L 943.839844 1238.085938 L 971.042969 1455.34375 L -1875.625 1811.777344 Z M -1902.828125 1594.519531"/></clipPath></defs><g clip-path="url(#a)"><path fill="#FFF" d="M 0 0.40625 L 1192.25 0.40625 L 1192.25 1694.296875 L 0 1694.296875 Z M 0 0.40625"/><path fill="#FFF" d="M 0 0.40625 L 1190 0.40625 L 1190 1683.800781 L 0 1683.800781 Z M 0 0.40625"/><path fill="#F2F2F2" d="M 0 0.40625 L 1190 0.40625 L 1190 1683.800781 L 0 1683.800781 Z M 0 0.40625"/></g><g clip-path="url(#b)"><path fill="#97C4FF" d="M 1138.488281 695.714844 C 1184.273438 700.914062 1232.519531 710.195312 1269.46875 739.710938 C 1276.3125 745.386719 1282.644531 751.578125 1288.476562 758.285156 C 1294.304688 764.996094 1299.550781 772.132812 1304.210938 779.699219 C 1308.875 787.265625 1312.890625 795.160156 1316.265625 803.382812 C 1319.636719 811.609375 1322.316406 820.050781 1324.308594 828.710938 C 1335.996094 874.890625 1354.554688 918.828125 1373.953125 962.433594 C 1385.132812 987.480469 1393.40625 1013.867188 1401.902344 1039.976562 C 1418.675781 1090.289062 1398.382812 1150.554688 1365.0625 1194.996094 C 1315.253906 1261.46875 1250.6875 1309.492188 1177.007812 1346.667969 C 1137.875 1366.402344 1097.847656 1369.027344 1055.976562 1362.597656 C 968.710938 1349.292969 942.660156 1325.480469 871.105469 1306.246094 C 745.265625 1272.257812 615.011719 1235.921875 532.949219 1112.425781 C 487.441406 1043.886719 480.734375 969.144531 495.773438 892.109375 C 510.417969 816.859375 556.652344 765.203125 632.0625 744.6875 C 698.644531 726.574219 787.753906 723.050781 930.585938 703.597656 C 957.644531 699.90625 984.753906 695.546875 1011.980469 692.976562 C 1054.246094 689.445312 1096.414062 690.359375 1138.488281 695.714844 Z M 1138.488281 695.714844"/></g><g clip-path="url(#c)"><path fill="#B6D6F2" d="M -78.984375 749.113281 L 1269.230469 749.113281 L 1269.230469 1726.90625 L -78.984375 1726.90625 L -78.984375 749.113281"/></g><g clip-path="url(#d)"><path fill="#5357A6" d="M -308.261719 1190.476562 L -408.09375 1622.410156 L 1080.832031 1966.539062 L 1304.230469 999.980469 L -308.261719 1190.476562"/></g><g clip-path="url(#e)"><path fill="#2F3159" d="M 1642.496094 1537.679688 C 1645.039062 1520.605469 1645.832031 1503.453125 1644.863281 1486.21875 C 1643.898438 1468.984375 1641.195312 1452.027344 1636.753906 1435.347656 C 1635.230469 1430.03125 1633.539062 1424.765625 1631.679688 1419.554688 C 1629.820312 1414.347656 1627.792969 1409.203125 1625.605469 1404.121094 C 1623.414062 1399.042969 1621.0625 1394.035156 1618.554688 1389.105469 C 1616.042969 1384.179688 1613.375 1379.335938 1610.554688 1374.574219 C 1607.734375 1369.816406 1604.761719 1365.15625 1601.640625 1360.585938 C 1598.523438 1356.019531 1595.257812 1351.554688 1591.851562 1347.195312 C 1588.445312 1342.839844 1584.902344 1338.59375 1581.222656 1334.460938 C 1577.542969 1330.332031 1573.738281 1326.320312 1569.800781 1322.433594 C 1565.867188 1318.546875 1561.808594 1314.789062 1557.632812 1311.164062 C 1553.457031 1307.535156 1549.167969 1304.046875 1544.765625 1300.695312 C 1540.367188 1297.34375 1535.863281 1294.132812 1531.257812 1291.070312 C 1526.648438 1288.007812 1521.949219 1285.09375 1517.15625 1282.332031 C 1512.363281 1279.570312 1507.488281 1276.964844 1502.527344 1274.515625 C 1497.570312 1272.066406 1492.535156 1269.78125 1487.429688 1267.652344 C 1482.320312 1265.527344 1477.152344 1263.566406 1471.917969 1261.769531 C 1466.6875 1259.976562 1461.402344 1258.351562 1456.066406 1256.894531 C 1397.042969 1241.546875 1334.902344 1247.410156 1274.378906 1255.273438 C 1175.175781 1267.75 1074.726562 1282.726562 984.753906 1326.902344 C 865.960938 1385.554688 775.492188 1490.507812 658.695312 1553.027344 C 649.621094 1558.359375 640.277344 1563.15625 630.664062 1567.421875 C 621.046875 1571.691406 611.21875 1575.398438 601.179688 1578.550781 C 591.144531 1581.699219 580.960938 1584.273438 570.628906 1586.265625 C 560.300781 1588.257812 549.890625 1589.65625 539.398438 1590.464844 C 473.761719 1592.960938 412.492188 1561.515625 349.726562 1542.671875 C 104.902344 1468.667969 -166.007812 1629.777344 -94.378906 1905.816406 C -92.992188 1910.96875 -91.527344 1916.101562 -89.984375 1921.210938 C -88.441406 1926.320312 -86.820312 1931.40625 -85.125 1936.464844 C -83.429688 1941.523438 -81.660156 1946.558594 -79.8125 1951.566406 C -77.964844 1956.574219 -76.042969 1961.550781 -74.046875 1966.5 C -72.050781 1971.449219 -69.980469 1976.371094 -67.835938 1981.257812 C -65.691406 1986.144531 -63.476562 1990.996094 -61.1875 1995.820312 C -58.898438 2000.640625 -56.535156 2005.425781 -54.101562 2010.175781 C -51.667969 2014.925781 -49.164062 2019.636719 -46.589844 2024.3125 C -44.011719 2028.984375 -41.367188 2033.621094 -38.65625 2038.214844 C -35.941406 2042.808594 -33.15625 2047.363281 -30.304688 2051.875 C -27.457031 2056.386719 -24.535156 2060.855469 -21.550781 2065.277344 C -18.566406 2069.703125 -15.515625 2074.078125 -12.398438 2078.410156 C -9.28125 2082.742188 -6.101562 2087.027344 -2.855469 2091.265625 C 0.390625 2095.5 3.699219 2099.6875 7.070312 2103.824219 C 10.441406 2107.964844 13.875 2112.046875 17.367188 2116.082031 C 20.863281 2120.117188 24.414062 2124.097656 28.027344 2128.023438 C 31.640625 2131.953125 35.3125 2135.824219 39.042969 2139.640625 C 42.773438 2143.457031 46.558594 2147.21875 50.402344 2150.921875 C 54.246094 2154.625 58.144531 2158.269531 62.09375 2161.855469 C 66.046875 2165.441406 70.054688 2168.96875 74.109375 2172.433594 C 78.167969 2175.898438 82.277344 2179.304688 86.4375 2182.644531 C 90.601562 2185.988281 94.808594 2189.269531 99.066406 2192.484375 C 103.328125 2195.699219 107.632812 2198.851562 111.988281 2201.9375 C 116.339844 2205.023438 120.738281 2208.042969 125.183594 2211 C 129.628906 2213.953125 134.117188 2216.839844 138.648438 2219.660156 C 143.179688 2222.480469 147.75 2225.230469 152.363281 2227.914062 C 156.976562 2230.59375 161.628906 2233.207031 166.324219 2235.75 C 171.015625 2238.292969 175.746094 2240.761719 180.511719 2243.164062 C 185.277344 2245.5625 190.078125 2247.890625 194.914062 2250.148438 C 199.75 2252.40625 204.621094 2254.585938 209.523438 2256.699219 C 214.421875 2258.808594 219.355469 2260.84375 224.320312 2262.804688 C 229.28125 2264.765625 234.273438 2266.652344 239.292969 2268.464844 C 244.339844 2270.179688 249.414062 2271.820312 254.511719 2273.386719 C 259.609375 2274.949219 264.730469 2276.4375 269.871094 2277.847656 C 275.015625 2279.253906 280.175781 2280.589844 285.359375 2281.84375 C 290.542969 2283.097656 295.742188 2284.277344 300.957031 2285.375 C 306.175781 2286.472656 311.410156 2287.492188 316.65625 2288.4375 C 321.90625 2289.378906 327.167969 2290.242188 332.441406 2291.023438 C 337.714844 2291.808594 343 2292.511719 348.296875 2293.136719 C 353.589844 2293.761719 358.894531 2294.308594 364.207031 2294.773438 C 369.515625 2295.242188 374.835938 2295.625 380.15625 2295.933594 C 385.480469 2296.238281 390.808594 2296.464844 396.136719 2296.613281 C 401.46875 2296.757812 406.796875 2296.824219 412.128906 2296.8125 C 417.460938 2296.796875 422.792969 2296.703125 428.121094 2296.53125 C 433.453125 2296.355469 438.777344 2296.101562 444.097656 2295.769531 C 449.421875 2295.4375 454.734375 2295.023438 460.046875 2294.53125 C 465.355469 2294.035156 470.65625 2293.464844 475.945312 2292.8125 C 481.238281 2292.160156 486.519531 2291.429688 491.789062 2290.617188 C 497.058594 2289.804688 502.316406 2288.917969 507.558594 2287.949219 C 512.804688 2286.980469 518.03125 2285.933594 523.242188 2284.804688 C 528.453125 2283.679688 533.648438 2282.476562 538.824219 2281.195312 C 544 2279.914062 549.15625 2278.554688 554.289062 2277.117188 C 559.425781 2275.683594 564.539062 2274.167969 569.628906 2272.578125 C 574.71875 2270.988281 579.78125 2269.324219 584.820312 2267.582031 C 589.859375 2265.839844 594.871094 2264.023438 599.859375 2262.132812 C 604.84375 2260.238281 609.796875 2258.273438 614.722656 2256.230469 C 619.648438 2254.191406 624.542969 2252.074219 629.40625 2249.886719 C 634.269531 2247.699219 639.097656 2245.4375 643.894531 2243.105469 C 648.6875 2240.773438 653.445312 2238.367188 658.167969 2235.890625 C 662.890625 2233.417969 667.574219 2230.871094 672.222656 2228.253906 C 676.867188 2225.636719 681.472656 2222.949219 686.039062 2220.195312 C 690.601562 2217.441406 695.125 2214.617188 699.605469 2211.726562 C 704.085938 2208.835938 708.523438 2205.878906 712.917969 2202.855469 C 717.308594 2199.832031 721.652344 2196.742188 725.953125 2193.589844 C 750.160156 2170.753906 789.71875 2173.371094 819.417969 2188.597656 C 849.113281 2203.824219 872.199219 2228.65625 898.40625 2249.246094 C 903.808594 2253.492188 909.351562 2257.550781 915.027344 2261.425781 C 920.703125 2265.296875 926.503906 2268.980469 932.425781 2272.464844 C 938.347656 2275.953125 944.378906 2279.238281 950.523438 2282.320312 C 956.664062 2285.402344 962.902344 2288.277344 969.234375 2290.945312 C 975.570312 2293.613281 981.984375 2296.066406 988.484375 2298.300781 C 994.980469 2300.539062 1001.546875 2302.558594 1008.179688 2304.359375 C 1014.8125 2306.160156 1021.496094 2307.734375 1028.234375 2309.085938 C 1034.972656 2310.441406 1041.75 2311.566406 1048.5625 2312.464844 C 1055.375 2313.367188 1062.210938 2314.039062 1069.070312 2314.480469 C 1075.925781 2314.925781 1082.792969 2315.136719 1089.664062 2315.121094 C 1096.535156 2315.109375 1103.402344 2314.863281 1110.257812 2314.390625 C 1117.113281 2313.914062 1123.945312 2313.210938 1130.753906 2312.28125 C 1137.5625 2311.351562 1144.332031 2310.195312 1151.066406 2308.8125 C 1157.796875 2307.429688 1164.476562 2305.824219 1171.101562 2303.992188 C 1177.726562 2302.164062 1184.28125 2300.117188 1190.769531 2297.847656 C 1197.257812 2295.582031 1203.660156 2293.101562 1209.984375 2290.40625 C 1216.304688 2287.710938 1222.53125 2284.808594 1228.65625 2281.695312 C 1234.785156 2278.585938 1240.804688 2275.273438 1246.710938 2271.761719 C 1252.617188 2268.246094 1258.398438 2264.542969 1264.058594 2260.640625 C 1269.71875 2256.742188 1275.242188 2252.660156 1280.625 2248.390625 C 1286.011719 2244.121094 1291.25 2239.679688 1296.339844 2235.058594 C 1301.429688 2230.441406 1306.359375 2225.660156 1311.128906 2220.710938 C 1315.898438 2215.761719 1320.5 2210.660156 1324.929688 2205.40625 C 1329.355469 2200.152344 1333.605469 2194.753906 1337.675781 2189.214844 C 1341.742188 2183.675781 1345.621094 2178.007812 1349.3125 2172.210938 C 1353.003906 2166.410156 1356.496094 2160.496094 1359.789062 2154.464844 C 1363.082031 2148.433594 1366.171875 2142.300781 1369.058594 2136.0625 C 1371.945312 2129.824219 1374.617188 2123.496094 1377.078125 2117.078125 C 1379.542969 2110.664062 1381.785156 2104.171875 1383.816406 2097.605469 C 1385.84375 2091.039062 1387.652344 2084.410156 1389.238281 2077.722656 C 1390.824219 2071.035156 1392.183594 2064.304688 1393.320312 2057.523438 C 1394.457031 2050.746094 1395.363281 2043.9375 1396.046875 2037.097656 C 1403.28125 1964.59375 1385.8125 1886.226562 1419.878906 1821.832031 C 1452.449219 1760.433594 1522.453125 1730.109375 1571.492188 1680.816406 C 1576.234375 1675.980469 1580.78125 1670.96875 1585.128906 1665.773438 C 1589.476562 1660.582031 1593.609375 1655.226562 1597.535156 1649.707031 C 1601.460938 1644.1875 1605.164062 1638.523438 1608.640625 1632.710938 C 1612.117188 1626.898438 1615.363281 1620.960938 1618.371094 1614.894531 C 1621.382812 1608.824219 1624.148438 1602.648438 1626.671875 1596.363281 C 1629.191406 1590.078125 1631.464844 1583.703125 1633.484375 1577.238281 C 1635.503906 1570.773438 1637.265625 1564.238281 1638.769531 1557.636719 C 1640.273438 1551.03125 1641.515625 1544.378906 1642.496094 1537.679688 Z M 1642.496094 1537.679688"/></g><g clip-path="url(#f)"><path fill="#5990D9" d="M -263.523438 783.488281 C -261.691406 791.445312 -259.277344 799.222656 -256.285156 806.820312 C -251.101562 821.082031 -245.917969 836.417969 -231.976562 842.625 C -224.53125 845.878906 -216.21875 846.5625 -208.148438 847.757812 C -155.992188 855.515625 -107.378906 862.226562 -51.558594 856.023438 C -35.085938 854.171875 -14.59375 851.277344 2.058594 851.039062 C 56.152344 866.195312 85.460938 855.542969 116.589844 862.707031 C 132.078125 866.285156 146.554688 873.445312 162.28125 876.074219 C 189.089844 880.546875 211.339844 867.359375 231.476562 865.269531 C 238.855469 864.585938 246.242188 864.488281 253.636719 864.972656 C 267.90625 865.75 282.292969 867.242188 296.472656 864.554688 C 299.867188 863.851562 303.171875 862.859375 306.394531 861.578125 C 309.617188 860.296875 312.703125 858.742188 315.652344 856.921875 C 318.605469 855.101562 321.375 853.039062 323.964844 850.730469 C 326.558594 848.425781 328.929688 845.914062 331.082031 843.191406 C 340.019531 832.660156 347.289062 820.933594 359.5 813.953125 C 381.304688 801.507812 410.4375 803.089844 434.710938 789.007812 C 441.296875 785.097656 447.253906 779.757812 447.253906 771.464844 C 447.253906 763.972656 443.082031 757.140625 438.316406 751.769531 C 420.175781 731.75 391.074219 727.304688 366.082031 722.917969 C 313.121094 713.609375 274.042969 696.066406 226.53125 687.828125 C 183.011719 680.222656 162.757812 684.695312 128.234375 690.8125 C 111.78125 694.027344 95.1875 695.074219 78.460938 693.945312 C 61.394531 692.574219 44.5625 690.214844 27.496094 693.050781 C -1.160156 697.796875 -25.792969 714.414062 -52.75 724.140625 C -89.597656 737.449219 -116.464844 728.855469 -150.480469 728.289062 C -158.609375 728.128906 -166.714844 728.472656 -174.804688 729.316406 C -182.890625 730.160156 -190.894531 731.5 -198.816406 733.332031 C -206.734375 735.167969 -214.515625 737.480469 -222.152344 740.277344 C -229.789062 743.070312 -237.222656 746.324219 -244.457031 750.039062 C -247.464844 751.457031 -250.265625 753.207031 -252.859375 755.289062 C -255.449219 757.375 -257.765625 759.730469 -259.796875 762.363281 C -260.832031 763.894531 -261.691406 765.515625 -262.386719 767.230469 C -263.078125 768.941406 -263.582031 770.707031 -263.902344 772.527344 C -264.222656 774.347656 -264.351562 776.179688 -264.289062 778.027344 C -264.222656 779.875 -263.96875 781.695312 -263.523438 783.488281 Z M -263.523438 783.488281"/></g><g clip-path="url(#g)"><path fill="#5990D9" d="M 240.511719 839.496094 C 239.019531 845.964844 237.058594 852.285156 234.621094 858.460938 C 230.402344 870.050781 226.179688 882.515625 214.832031 887.5625 C 208.769531 890.203125 202.003906 890.761719 195.433594 891.730469 C 152.972656 898.035156 113.398438 903.492188 67.957031 898.449219 C 54.546875 896.945312 37.863281 894.59375 24.308594 894.398438 C -19.726562 906.71875 -43.585938 898.0625 -68.925781 903.878906 C -81.535156 906.789062 -93.320312 912.609375 -106.125 914.746094 C -127.949219 918.382812 -146.0625 907.664062 -162.457031 905.964844 C -168.460938 905.410156 -174.476562 905.328125 -180.496094 905.722656 C -192.113281 906.355469 -203.824219 907.566406 -215.367188 905.382812 C -218.128906 904.8125 -220.824219 904.003906 -223.445312 902.964844 C -226.066406 901.921875 -228.578125 900.660156 -230.980469 899.179688 C -233.382812 897.699219 -235.640625 896.023438 -237.75 894.148438 C -239.859375 892.273438 -241.789062 890.234375 -243.542969 888.019531 C -250.820312 879.460938 -256.734375 869.929688 -266.675781 864.257812 C -284.425781 854.144531 -308.144531 855.429688 -327.90625 843.984375 C -333.265625 840.808594 -338.113281 836.464844 -338.113281 829.726562 C -338.113281 823.636719 -334.71875 818.085938 -330.839844 813.71875 C -316.074219 797.449219 -292.382812 793.835938 -272.035156 790.269531 C -228.921875 782.703125 -197.105469 768.445312 -158.429688 761.753906 C -123.003906 755.570312 -106.511719 759.207031 -78.410156 764.179688 C -65.011719 766.792969 -51.507812 767.640625 -37.890625 766.722656 C -23.996094 765.609375 -10.292969 763.691406 3.601562 765.996094 C 26.929688 769.851562 46.980469 783.359375 68.925781 791.265625 C 98.921875 802.082031 120.796875 795.097656 148.488281 794.636719 C 155.105469 794.507812 161.707031 794.785156 168.289062 795.472656 C 174.871094 796.15625 181.386719 797.246094 187.835938 798.734375 C 194.285156 800.226562 200.617188 802.105469 206.832031 804.378906 C 213.050781 806.648438 219.101562 809.296875 224.992188 812.3125 C 229.957031 814.652344 234.121094 817.988281 237.480469 822.328125 C 238.320312 823.574219 239.023438 824.890625 239.585938 826.285156 C 240.148438 827.675781 240.5625 829.113281 240.824219 830.589844 C 241.085938 832.070312 241.1875 833.558594 241.136719 835.0625 C 241.085938 836.5625 240.875 838.039062 240.511719 839.496094 Z M 240.511719 839.496094"/></g><path fill="#FFDBD2" d="M 693.898438 624.746094 C 676.089844 624.746094 661.652344 639.183594 661.652344 656.988281 C 661.652344 674.796875 676.089844 689.234375 693.898438 689.234375 C 711.703125 689.234375 726.140625 674.796875 726.140625 656.988281 C 726.140625 639.183594 711.703125 624.746094 693.898438 624.746094"/><g clip-path="url(#h)"><g clip-path="url(#i)"><g clip-path="url(#j)"><path fill="#424584" d="M -180.214844 1264.441406 L 578.742188 1159.757812 L -182.59375 1245.425781 C -203.648438 1234.84375 -224.433594 1227.75 -238.351562 1226.8125 C -244.546875 1226.398438 -249.792969 1227.175781 -253.683594 1229.335938 C -258.84375 1232.207031 -261.519531 1236.832031 -261.0625 1243.449219 C -260.691406 1248.71875 -257.878906 1255.441406 -252.039062 1263.78125 C -255.644531 1273.292969 -256.710938 1280.503906 -255.765625 1285.707031 C -254.585938 1292.230469 -250.855469 1296.050781 -245.140625 1297.5625 C -240.835938 1298.695312 -235.5625 1298.15625 -229.660156 1296.226562 C -216.402344 1291.886719 -198.003906 1279.890625 -180.214844 1264.441406 Z M -247.027344 1242.46875 C -246.796875 1245.789062 -244.160156 1251.027344 -238.472656 1258.546875 L -236.035156 1261.777344 L -237.601562 1265.503906 C -241.261719 1274.191406 -242.523438 1279.917969 -241.929688 1283.195312 C -241.84375 1283.664062 -241.71875 1283.898438 -241.574219 1283.9375 C -240.011719 1284.351562 -237.40625 1283.925781 -234 1282.8125 C -223.136719 1279.257812 -207.816406 1269.355469 -192.367188 1256.308594 C -210.554688 1247.46875 -227.847656 1241.652344 -239.25 1240.882812 C -242.824219 1240.644531 -245.457031 1240.875 -246.867188 1241.660156 C -247.003906 1241.734375 -247.0625 1241.992188 -247.027344 1242.46875 Z M -247.027344 1242.46875" fill-rule="evenodd"/></g></g></g><g clip-path="url(#k)"><g clip-path="url(#l)"><g clip-path="url(#m)"><path fill="#424584" d="M -434.074219 1374.75 L 324.878906 1270.0625 L -436.457031 1355.730469 C -457.507812 1345.148438 -478.296875 1338.058594 -492.214844 1337.121094 C -498.410156 1336.703125 -503.652344 1337.480469 -507.546875 1339.640625 C -512.707031 1342.515625 -515.382812 1347.136719 -514.921875 1353.757812 C -514.554688 1359.023438 -511.742188 1365.75 -505.898438 1374.085938 C -509.503906 1383.601562 -510.574219 1390.8125 -509.628906 1396.011719 C -508.445312 1402.535156 -504.714844 1406.359375 -499.003906 1407.867188 C -494.699219 1409.003906 -489.425781 1408.464844 -483.523438 1406.53125 C -470.261719 1402.195312 -451.863281 1390.199219 -434.074219 1374.75 Z M -500.890625 1352.777344 C -500.660156 1356.09375 -498.023438 1361.335938 -492.335938 1368.855469 L -489.894531 1372.082031 L -491.464844 1375.808594 C -495.121094 1384.496094 -496.386719 1390.226562 -495.789062 1393.5 C -495.707031 1393.96875 -495.582031 1394.207031 -495.433594 1394.246094 C -493.875 1394.65625 -491.265625 1394.234375 -487.863281 1393.121094 C -477 1389.5625 -461.675781 1379.664062 -446.230469 1366.613281 C -464.417969 1357.773438 -481.707031 1351.957031 -493.113281 1351.1875 C -496.6875 1350.949219 -499.316406 1351.179688 -500.726562 1351.964844 C -500.863281 1352.042969 -500.925781 1352.300781 -500.890625 1352.777344 Z M -500.890625 1352.777344" fill-rule="evenodd"/></g></g></g><g clip-path="url(#n)"><g clip-path="url(#o)"><g clip-path="url(#p)"><path fill="#767AD4" d="M 1428.207031 1067.171875 L 671.808594 1188.980469 L 1431.015625 1086.132812 C 1452.304688 1096.234375 1473.246094 1102.855469 1487.179688 1103.476562 C 1493.382812 1103.753906 1498.609375 1102.859375 1502.449219 1100.609375 C 1507.546875 1097.621094 1510.117188 1092.9375 1509.507812 1086.332031 C 1509.019531 1081.074219 1506.054688 1074.414062 1500.027344 1066.210938 C 1503.417969 1056.617188 1504.324219 1049.382812 1503.261719 1044.207031 C 1501.929688 1037.710938 1498.113281 1033.976562 1492.367188 1032.59375 C 1488.039062 1031.558594 1482.78125 1032.214844 1476.921875 1034.28125 C 1463.765625 1038.917969 1445.644531 1051.324219 1428.207031 1067.171875 Z M 1495.5 1087.628906 C 1495.195312 1084.316406 1492.441406 1079.136719 1486.585938 1071.75 L 1484.074219 1068.578125 L 1485.554688 1064.816406 C 1489.019531 1056.046875 1490.152344 1050.292969 1489.480469 1047.03125 C 1489.386719 1046.566406 1489.257812 1046.332031 1489.109375 1046.296875 C 1487.539062 1045.917969 1484.941406 1046.398438 1481.566406 1047.589844 C 1470.785156 1051.390625 1455.691406 1061.636719 1440.542969 1075.03125 C 1458.925781 1083.457031 1476.34375 1088.882812 1487.761719 1089.394531 C 1491.339844 1089.550781 1493.964844 1089.257812 1495.355469 1088.445312 C 1495.492188 1088.363281 1495.546875 1088.105469 1495.5 1087.628906 Z M 1495.5 1087.628906" fill-rule="evenodd"/></g></g></g><g clip-path="url(#q)"><g clip-path="url(#r)"><g clip-path="url(#s)"><path fill="#767AD4" d="M 1471.269531 994.703125 L 956.195312 1077.617188 L 1473.171875 1007.554688 C 1487.660156 1014.394531 1501.917969 1018.871094 1511.40625 1019.285156 C 1515.628906 1019.46875 1519.1875 1018.859375 1521.804688 1017.335938 C 1525.273438 1015.308594 1527.027344 1012.132812 1526.617188 1007.652344 C 1526.285156 1004.089844 1524.269531 999.574219 1520.167969 994.019531 C 1522.480469 987.511719 1523.101562 982.609375 1522.378906 979.101562 C 1521.480469 974.699219 1518.882812 972.167969 1514.96875 971.234375 C 1512.023438 970.53125 1508.441406 970.980469 1504.453125 972.382812 C 1495.492188 975.53125 1483.148438 983.953125 1471.269531 994.703125 Z M 1517.078125 1008.539062 C 1516.871094 1006.292969 1515 1002.785156 1511.015625 997.777344 L 1509.304688 995.628906 L 1510.316406 993.078125 C 1512.679688 987.132812 1513.453125 983.230469 1513 981.019531 C 1512.933594 980.703125 1512.84375 980.546875 1512.746094 980.523438 C 1511.675781 980.265625 1509.90625 980.59375 1507.609375 981.402344 C 1500.265625 983.984375 1489.984375 990.9375 1479.664062 1000.023438 C 1492.175781 1005.726562 1504.03125 1009.398438 1511.808594 1009.738281 C 1514.242188 1009.84375 1516.03125 1009.644531 1516.980469 1009.089844 C 1517.070312 1009.039062 1517.109375 1008.863281 1517.078125 1008.539062 Z M 1517.078125 1008.539062" fill-rule="evenodd"/></g></g></g><g clip-path="url(#t)"><g clip-path="url(#u)"><g clip-path="url(#v)"><path fill="#424584" d="M -274.4375 1516.613281 L 957.539062 1346.691406 L -278.300781 1485.761719 C -312.472656 1468.597656 -346.210938 1457.097656 -368.804688 1455.578125 C -378.859375 1454.90625 -387.375 1456.167969 -393.691406 1459.671875 C -402.070312 1464.332031 -406.414062 1471.832031 -405.667969 1482.570312 C -405.070312 1491.113281 -400.503906 1502.023438 -391.023438 1515.546875 C -396.878906 1530.984375 -398.613281 1542.679688 -397.078125 1551.117188 C -395.160156 1561.699219 -389.105469 1567.898438 -379.832031 1570.347656 C -372.847656 1572.1875 -364.285156 1571.3125 -354.707031 1568.179688 C -333.179688 1561.140625 -303.316406 1541.675781 -274.4375 1516.613281 Z M -382.890625 1480.976562 C -382.515625 1486.359375 -378.238281 1494.859375 -369.003906 1507.058594 L -365.046875 1512.292969 L -367.589844 1518.339844 C -373.53125 1532.433594 -375.585938 1541.726562 -374.617188 1547.042969 C -374.480469 1547.800781 -374.277344 1548.183594 -374.039062 1548.246094 C -371.507812 1548.917969 -367.273438 1548.230469 -361.75 1546.421875 C -344.113281 1540.652344 -319.242188 1524.585938 -294.164062 1503.417969 C -323.6875 1489.078125 -351.753906 1479.644531 -370.265625 1478.398438 C -376.066406 1478.011719 -380.335938 1478.390625 -382.625 1479.660156 C -382.847656 1479.785156 -382.949219 1480.203125 -382.890625 1480.976562 Z M -382.890625 1480.976562" fill-rule="evenodd"/></g></g></g></svg>